<svg width="35" height="35" viewBox="0 0 35 35" fill="none" xmlns="http://www.w3.org/2000/svg">
<path d="M19.4336 17.5008L34.5996 2.33477C35.1335 1.80082 35.1335 0.935114 34.5996 0.401229C34.0656 -0.132657 33.1999 -0.132726 32.666 0.401229L17.5 15.5673L2.33401 0.401229C1.80005 -0.132726 0.934351 -0.132726 0.400466 0.401229C-0.13342 0.935183 -0.133489 1.80088 0.400466 2.33477L15.5664 17.5007L0.400466 32.6668C-0.133489 33.2008 -0.133489 34.0665 0.400466 34.6003C0.667408 34.8673 1.01734 35.0007 1.36727 35.0007C1.7172 35.0007 2.06706 34.8673 2.33408 34.6003L17.5 19.4344L32.666 34.6003C32.9329 34.8673 33.2828 35.0007 33.6328 35.0007C33.9827 35.0007 34.3326 34.8673 34.5996 34.6003C35.1335 34.0664 35.1335 33.2007 34.5996 32.6668L19.4336 17.5008Z" fill="#464646"/>
</svg>
