<svg width="72" height="72" viewBox="0 0 72 72" fill="none" xmlns="http://www.w3.org/2000/svg">
<path d="M36 0.125C28.9046 0.125 21.9685 2.22903 16.0689 6.17103C10.1693 10.113 5.57113 15.7159 2.85584 22.2712C0.140544 28.8265 -0.569901 36.0398 0.814344 42.9989C2.19859 49.9579 5.61535 56.3502 10.6326 61.3675C15.6498 66.3847 22.0421 69.8014 29.0012 71.1857C35.9602 72.5699 43.1735 71.8595 49.7288 69.1442C56.2841 66.4289 61.887 61.8307 65.829 55.9311C69.771 50.0315 71.875 43.0954 71.875 36C71.875 26.4854 68.0953 17.3604 61.3675 10.6325C54.6396 3.90468 45.5147 0.125 36 0.125ZM20.625 62.5987V57.4737C20.5125 55.3098 21.2557 53.1885 22.694 51.5679C24.1324 49.9474 26.1505 48.9576 28.3125 48.8125H43.6875C45.8542 48.9576 47.8763 49.9509 49.3154 51.5771C50.7545 53.2032 51.4945 55.3312 51.375 57.4994V62.6244C46.7073 65.3435 41.402 66.7761 36 66.7761C30.5981 66.7761 25.2927 65.3435 20.625 62.6244V62.5987ZM56.5 58.8575V57.2944C56.5699 53.8008 55.2673 50.419 52.8718 47.8751C50.4764 45.3311 47.179 43.8276 43.6875 43.6875H28.3125C24.8188 43.8211 21.5175 45.3226 19.1207 47.868C16.7239 50.4134 15.4235 53.7989 15.5 57.2944V58.8062C10.8582 54.6545 7.5864 49.1912 6.11756 43.1392C4.64871 37.0873 5.05205 30.732 7.27422 24.9143C9.49638 19.0966 13.4326 14.0907 18.5621 10.5591C23.6915 7.02747 29.7724 5.13655 36 5.13655C42.2277 5.13655 48.3085 7.02747 53.438 10.5591C58.5674 14.0907 62.5037 19.0966 64.7258 24.9143C66.948 30.732 67.3513 37.0873 65.8825 43.1392C64.4136 49.1912 61.1418 54.6545 56.5 58.8062V58.8575Z" fill="#FFE2B4"/>
</svg>
